<?xml version="1.0" encoding="UTF-8"?>
<svg id="Layer_1" data-name="Layer 1" xmlns="http://www.w3.org/2000/svg" viewBox="0 0 48 48">
  <defs>
    <style>
      .cls-1 {
        fill: none;
      }
    </style>
  </defs>
  <path class="cls-1" d="m48,24.33v23.67H0V0h23.67c-.74.31-1.27.81-1.28,1.66-.02,1.62-.03,3.24,0,4.86.01.86.62,1.51,1.4,1.63,1.06.15,1.91-.62,1.92-1.77.01-1.42-.03-2.84.01-4.25.03-1.02-.33-1.75-1.3-2.13h23.58v23.58c-.31-.74-.81-1.27-1.66-1.28-1.62-.02-3.24-.03-4.86,0-.86.01-1.51.62-1.63,1.4-.15,1.06.62,1.91,1.77,1.92,1.42.01,2.84-.03,4.25.01,1.02.03,1.75-.33,2.13-1.3Zm-11.92-.82c-.26-7.08-6.61-12.24-13.34-11.53-6.32.67-11.39,6.52-10.68,13.24.66,6.29,6.37,11.42,13.25,10.71,6.36-.65,10.98-6.3,10.76-12.42Zm-31.94,2.11c.76,0,1.53,0,2.29,0,1.06-.01,1.82-.71,1.83-1.66,0-.95-.76-1.66-1.81-1.67-1.51,0-3.03,0-4.54,0-1.06,0-1.82.71-1.82,1.66,0,.98.72,1.65,1.8,1.66.75,0,1.5,0,2.25,0Zm21.57,18.22c0-.76,0-1.53,0-2.29-.01-1.06-.72-1.82-1.67-1.81-.95,0-1.65.77-1.66,1.83,0,1.51,0,3.02,0,4.53,0,1.06.72,1.81,1.67,1.81.95,0,1.65-.76,1.66-1.82,0-.75,0-1.5,0-2.24Zm9.08-32.43c.01.92.32,1.43.94,1.73.66.31,1.3.17,1.81-.32,1.18-1.15,2.36-2.31,3.5-3.5.67-.69.63-1.67-.03-2.3-.65-.62-1.59-.63-2.26.03-1.17,1.14-2.33,2.29-3.46,3.47-.27.28-.4.7-.49.89Zm-21.49,25.1c-.01-.92-.32-1.43-.94-1.73-.66-.31-1.3-.17-1.81.32-1.18,1.15-2.36,2.31-3.5,3.5-.67.69-.63,1.67.03,2.3.65.62,1.59.63,2.26-.03,1.17-1.14,2.33-2.29,3.46-3.47.27-.28.4-.7.5-.89Zm.11-24.88c-.2-.37-.32-.81-.6-1.1-1.13-1.18-2.28-2.34-3.47-3.47-.26-.25-.66-.42-1.03-.48-.64-.11-1.27.3-1.56.88-.32.64-.22,1.32.33,1.89,1.13,1.16,2.29,2.29,3.43,3.44.08.08.16.15.25.2.52.35,1.07.41,1.63.12.57-.29.88-.77,1.01-1.48Zm26.2,29.75c.9-.05,1.41-.36,1.69-.98.3-.67.17-1.29-.34-1.8-1.13-1.16-2.28-2.3-3.43-3.44-.7-.69-1.67-.7-2.33-.04-.65.64-.65,1.61.02,2.3,1.13,1.16,2.27,2.31,3.44,3.43.3.28.73.42.94.53Z"/>
  <path d="m24.42,0c.97.38,1.33,1.11,1.3,2.13-.04,1.42,0,2.83-.01,4.25-.01,1.15-.86,1.92-1.92,1.77-.78-.11-1.39-.77-1.4-1.63-.03-1.62-.02-3.24,0-4.86.01-.85.54-1.35,1.28-1.66h.75Z"/>
  <path d="m48,24.33c-.38.97-1.11,1.33-2.13,1.3-1.42-.04-2.83,0-4.25-.01-1.15-.01-1.92-.86-1.77-1.92.11-.78.77-1.39,1.63-1.4,1.62-.03,3.24-.02,4.86,0,.85.01,1.35.54,1.66,1.28v.75Z"/>
  <path d="m36.08,23.51c.22,6.12-4.4,11.77-10.76,12.42-6.88.7-12.59-4.42-13.25-10.71-.71-6.72,4.35-12.57,10.68-13.24,6.73-.71,13.07,4.45,13.34,11.53Zm-12.05-8.27c-4.9,0-8.71,3.82-8.71,8.72,0,4.9,3.81,8.71,8.71,8.72,4.91.01,8.75-3.84,8.74-8.75-.02-4.9-3.84-8.71-8.73-8.7Z"/>
  <path d="m4.14,25.62c-.75,0-1.5,0-2.25,0-1.08-.01-1.81-.69-1.8-1.66,0-.96.75-1.66,1.82-1.66,1.51,0,3.03,0,4.54,0,1.06,0,1.82.72,1.81,1.67,0,.95-.77,1.65-1.83,1.66-.76,0-1.53,0-2.29,0Z"/>
  <path d="m25.71,43.84c0,.75,0,1.5,0,2.24-.01,1.06-.7,1.82-1.66,1.82-.96,0-1.66-.75-1.67-1.81-.01-1.51,0-3.02,0-4.53,0-1.06.71-1.82,1.66-1.83.95,0,1.66.76,1.67,1.81,0,.76,0,1.53,0,2.29Z"/>
  <path d="m34.79,11.41c.1-.18.22-.6.49-.89,1.13-1.18,2.29-2.33,3.46-3.47.68-.66,1.62-.65,2.26-.03.65.63.69,1.61.03,2.3-1.15,1.19-2.32,2.35-3.5,3.5-.51.5-1.15.64-1.81.32-.61-.29-.93-.81-.94-1.73Z"/>
  <path d="m13.3,36.5c-.1.18-.22.6-.5.89-1.13,1.18-2.29,2.33-3.46,3.47-.68.66-1.62.65-2.26.03-.65-.63-.69-1.61-.03-2.3,1.15-1.19,2.32-2.35,3.5-3.5.51-.5,1.15-.64,1.81-.32.61.29.93.81.94,1.73Z"/>
  <path d="m13.4,11.62c-.13.71-.44,1.19-1.01,1.48-.56.29-1.11.23-1.63-.12-.09-.06-.18-.13-.25-.2-1.15-1.14-2.3-2.28-3.43-3.44-.55-.56-.65-1.25-.33-1.89.29-.59.92-.99,1.56-.88.36.06.76.23,1.03.48,1.18,1.13,2.34,2.28,3.47,3.47.28.29.41.73.6,1.1Z"/>
  <path d="m39.6,41.37c-.21-.12-.65-.25-.94-.53-1.17-1.12-2.31-2.27-3.44-3.43-.68-.69-.67-1.65-.02-2.3.66-.66,1.64-.65,2.33.04,1.15,1.14,2.3,2.28,3.43,3.44.51.51.64,1.14.34,1.8-.28.62-.8.93-1.69.98Z"/>
  <path class="cls-1" d="m24.03,15.23c4.9,0,8.72,3.8,8.73,8.7.02,4.91-3.82,8.76-8.74,8.75-4.9-.01-8.71-3.83-8.71-8.72,0-4.9,3.81-8.71,8.71-8.72Z"/>
</svg>